<?xml version="1.0" encoding="UTF-8" standalone="no"?>
<!-- Created with Inkscape (http://www.inkscape.org/) -->

<svg
   width="17.2486mm"
   height="43.016315mm"
   viewBox="0 0 17.2486 43.016315"
   version="1.1"
   id="svg1"
   xmlns:inkscape="http://www.inkscape.org/namespaces/inkscape"
   xmlns:sodipodi="http://sodipodi.sourceforge.net/DTD/sodipodi-0.dtd"
   xmlns="http://www.w3.org/2000/svg"
   xmlns:svg="http://www.w3.org/2000/svg">
  <sodipodi:namedview
     id="namedview1"
     pagecolor="#ffffff"
     bordercolor="#000000"
     borderopacity="0.25"
     inkscape:showpageshadow="2"
     inkscape:pageopacity="0.0"
     inkscape:pagecheckerboard="0"
     inkscape:deskcolor="#d1d1d1"
     inkscape:document-units="mm" />
  <defs
     id="defs1">
    <linearGradient
       x1="0"
       y1="0"
       x2="1"
       y2="0"
       gradientUnits="userSpaceOnUse"
       gradientTransform="matrix(161.011,0,0,-366.362,1007.72,828.394)"
       spreadMethod="pad"
       id="linearGradient46">
      <stop
         style="stop-opacity:1;stop-color:#05233f"
         offset="0"
         id="stop45" />
      <stop
         style="stop-opacity:1;stop-color:#61849c"
         offset="1"
         id="stop46" />
    </linearGradient>
    <clipPath
       clipPathUnits="userSpaceOnUse"
       id="clipPath46">
      <path
         d="m 1168.73,482.031 c -66.09,42.649 -109.85,116.914 -109.85,201.426 0,45.777 12.86,88.578 35.13,124.938 -44.08,-35.114 -75.49,-85.426 -86.29,-143.028 16.22,-86.441 78.83,-156.488 161.01,-183.336"
         transform="translate(0,2.5000001e-5)"
         id="path46" />
    </clipPath>
    <linearGradient
       x1="0"
       y1="0"
       x2="1"
       y2="0"
       gradientUnits="userSpaceOnUse"
       gradientTransform="matrix(174.272,0,0,-169.102,1018.84,557.129)"
       spreadMethod="pad"
       id="linearGradient48">
      <stop
         style="stop-opacity:1;stop-color:#05233f"
         offset="0"
         id="stop47" />
      <stop
         style="stop-opacity:1;stop-color:#61849c"
         offset="1"
         id="stop48" />
    </linearGradient>
    <clipPath
       clipPathUnits="userSpaceOnUse"
       id="clipPath48">
      <path
         d="m 1126.79,465.098 c -43.53,14.148 -80.25,39.609 -107.95,72.031 19.77,-52.762 57.93,-98.184 109.37,-126.277 21.89,-2.825 43.7,-2.551 64.9,0.535 -3.19,14.074 -6.04,28.269 -8.56,42.558 -19.23,1.328 -38.59,4.934 -57.76,11.153"
         transform="translate(0,2.5000001e-5)"
         id="path48" />
    </clipPath>
    <linearGradient
       x1="0"
       y1="0"
       x2="1"
       y2="0"
       gradientUnits="userSpaceOnUse"
       gradientTransform="matrix(116.87,0,0,-245.2,1087.94,874.014)"
       spreadMethod="pad"
       id="linearGradient50">
      <stop
         style="stop-opacity:1;stop-color:#05233f"
         offset="0"
         id="stop49" />
      <stop
         style="stop-opacity:1;stop-color:#61849c"
         offset="1"
         id="stop50" />
    </linearGradient>
    <clipPath
       clipPathUnits="userSpaceOnUse"
       id="clipPath50">
      <path
         d="m 1188.8,788.414 c 4.51,22.176 9.89,44.047 16.01,65.602 -72.55,-43.243 -116.74,-121.735 -116.87,-205.203 15,56.621 50.52,106.847 100.86,139.601"
         transform="translate(0,2.5000001e-5)"
         id="path50" />
    </clipPath>
    <linearGradient
       x1="0"
       y1="0"
       x2="1"
       y2="0"
       gradientUnits="userSpaceOnUse"
       gradientTransform="matrix(175.786,0,0,-347.939,1267.67,709.746)"
       spreadMethod="pad"
       id="linearGradient52">
      <stop
         style="stop-opacity:1;stop-color:#6ea41b"
         offset="0"
         id="stop51" />
      <stop
         style="stop-opacity:1;stop-color:#b5dc17"
         offset="1"
         id="stop52" />
    </linearGradient>
    <clipPath
       clipPathUnits="userSpaceOnUse"
       id="clipPath52">
      <path
         d="m 1267.66,381.809 c 56.3,2.488 111.3,24.734 153.9,64.976 37.68,79.465 28.21,172.961 -22.5,242.961 28.4,-73.336 20.14,-159.16 -29.54,-227.508 -26.9,-37.05 -62.45,-64.121 -101.86,-80.429"
         transform="translate(0,2.5000001e-5)"
         id="path52" />
    </clipPath>
    <linearGradient
       x1="0"
       y1="0"
       x2="1"
       y2="0"
       gradientUnits="userSpaceOnUse"
       gradientTransform="matrix(311.021,0,0,-1259.36,1184.83,1239.36)"
       spreadMethod="pad"
       id="linearGradient54">
      <stop
         style="stop-opacity:1;stop-color:#6ea41b"
         offset="0"
         id="stop53" />
      <stop
         style="stop-opacity:1;stop-color:#b5dc17"
         offset="1"
         id="stop54" />
    </linearGradient>
    <clipPath
       clipPathUnits="userSpaceOnUse"
       id="clipPath54">
      <path
         d="m 1240.25,778.5 c 1.75,10.801 3.79,21.465 5.86,32.141 4.44,1.726 8.93,3.39 13.52,4.886 43.55,14.129 88.21,15.129 129.69,5.196 -38.82,25.648 -84.86,39.648 -132.43,39.605 32.7,133.09 90.82,254.912 168.3,359.032 -95.44,-102.29 -167.04,-227.036 -206.31,-365.344 -6.12,-21.555 -11.51,-43.426 -16.01,-65.602 -11.74,-57.754 -18.03,-117.516 -18.03,-178.734 0,-53.137 4.87,-105.141 13.78,-155.735 2.52,-14.289 5.37,-28.484 8.56,-42.558 C 1242.73,254.68 1319.29,113.535 1425.19,0 c -89.14,119.797 -152.45,263.066 -181.13,419.922 48.52,15.168 91.76,45.461 122.33,87.394 -36.35,-29.589 -80.97,-48.086 -128.09,-52.726 -7.48,50.519 -11.55,102.265 -11.55,155.09 0,57.175 4.59,113.175 13.33,167.625 77.07,2.824 154.12,-31.426 202.84,-98.516 26.91,-37.039 41.65,-79.199 45.03,-121.738 15.01,54.316 10.84,113.496 -14.28,166.457 -62.72,59.285 -152.34,79.398 -233.42,54.992"
         transform="translate(0,2.5000001e-5)"
         id="path54" />
    </clipPath>
  </defs>
  <g
     inkscape:label="Layer 1"
     inkscape:groupmode="layer"
     id="layer1"
     transform="translate(-35.779546,-1.1809601)">
    <path
       id="path45"
       d="m 1168.73,482.031 c -66.09,42.649 -109.85,116.914 -109.85,201.426 0,45.777 12.86,88.578 35.13,124.938 -44.08,-35.114 -75.49,-85.426 -86.29,-143.028 16.22,-86.441 78.83,-156.488 161.01,-183.336"
       style="fill:url(#linearGradient46);fill-opacity:1;fill-rule:nonzero;stroke:none"
       transform="matrix(0.03527778,0,0,-0.03527778,0.22942041,44.197274)"
       clip-path="url(#clipPath46)" />
    <path
       id="path47"
       d="m 1126.79,465.098 c -43.53,14.148 -80.25,39.609 -107.95,72.031 19.77,-52.762 57.93,-98.184 109.37,-126.277 21.89,-2.825 43.7,-2.551 64.9,0.535 -3.19,14.074 -6.04,28.269 -8.56,42.558 -19.23,1.328 -38.59,4.934 -57.76,11.153"
       style="fill:url(#linearGradient48);fill-opacity:1;fill-rule:nonzero;stroke:none"
       transform="matrix(0.03527778,0,0,-0.03527778,0.22942041,44.197274)"
       clip-path="url(#clipPath48)" />
    <path
       id="path49"
       d="m 1188.8,788.414 c 4.51,22.176 9.89,44.047 16.01,65.602 -72.55,-43.243 -116.74,-121.735 -116.87,-205.203 15,56.621 50.52,106.847 100.86,139.601"
       style="fill:url(#linearGradient50);fill-opacity:1;fill-rule:nonzero;stroke:none"
       transform="matrix(0.03527778,0,0,-0.03527778,0.22942041,44.197274)"
       clip-path="url(#clipPath50)" />
    <path
       id="path51"
       d="m 1267.66,381.809 c 56.3,2.488 111.3,24.734 153.9,64.976 37.68,79.465 28.21,172.961 -22.5,242.961 28.4,-73.336 20.14,-159.16 -29.54,-227.508 -26.9,-37.05 -62.45,-64.121 -101.86,-80.429"
       style="fill:url(#linearGradient52);fill-opacity:1;fill-rule:nonzero;stroke:none"
       transform="matrix(0.03527778,0,0,-0.03527778,0.22942041,44.197274)"
       clip-path="url(#clipPath52)" />
    <path
       id="path53"
       d="m 1240.25,778.5 c 1.75,10.801 3.79,21.465 5.86,32.141 4.44,1.726 8.93,3.39 13.52,4.886 43.55,14.129 88.21,15.129 129.69,5.196 -38.82,25.648 -84.86,39.648 -132.43,39.605 32.7,133.09 90.82,254.912 168.3,359.032 -95.44,-102.29 -167.04,-227.036 -206.31,-365.344 -6.12,-21.555 -11.51,-43.426 -16.01,-65.602 -11.74,-57.754 -18.03,-117.516 -18.03,-178.734 0,-53.137 4.87,-105.141 13.78,-155.735 2.52,-14.289 5.37,-28.484 8.56,-42.558 C 1242.73,254.68 1319.29,113.535 1425.19,0 c -89.14,119.797 -152.45,263.066 -181.13,419.922 48.52,15.168 91.76,45.461 122.33,87.394 -36.35,-29.589 -80.97,-48.086 -128.09,-52.726 -7.48,50.519 -11.55,102.265 -11.55,155.09 0,57.175 4.59,113.175 13.33,167.625 77.07,2.824 154.12,-31.426 202.84,-98.516 26.91,-37.039 41.65,-79.199 45.03,-121.738 15.01,54.316 10.84,113.496 -14.28,166.457 -62.72,59.285 -152.34,79.398 -233.42,54.992"
       style="fill:url(#linearGradient54);fill-opacity:1;fill-rule:nonzero;stroke:none"
       transform="matrix(0.03527778,0,0,-0.03527778,0.22942041,44.197274)"
       clip-path="url(#clipPath54)"
       inkscape:export-filename="path53.svg"
       inkscape:export-xdpi="96"
       inkscape:export-ydpi="96" />
  </g>
</svg>
